<svg xmlns="http://www.w3.org/2000/svg" viewBox="0 0 165 25" width="165" height="25" preserveAspectRatio="xMidYMid meet" style="width: 100%; height: 100%; transform: translate3d(0px, 0px, 0px);"><defs><clipPath id="__lottie_element_159"><rect width="165" height="25" x="0" y="0"></rect></clipPath><clipPath id="__lottie_element_161"><path d="M0,0 L720,0 L720,230 L0,230z"></path></clipPath><mask id="__lottie_element_170" mask-type="alpha"><g transform="matrix(1,0,0,1,312.7950134277344,114.63899993896484)" opacity="1" style="display: block;"><g opacity="1" transform="matrix(1,0,0,1,0,0)"><path fill="rgb(0,0,0)" fill-opacity="1" d=" M6.834000110626221,-7.6479997634887695 C6.052000045776367,-8.079000473022461 5.156000137329102,-8.326000213623047 4.198999881744385,-8.326000213623047 C2.510999917984009,-8.326000213623047 1,-7.557000160217285 0.0020000000949949026,-6.35099983215332 C-1.0010000467300415,-7.557000160217285 -2.51200008392334,-8.326000213623047 -4.202000141143799,-8.326000213623047 C-5.156000137329102,-8.326000213623047 -6.051000118255615,-8.079000473022461 -6.835000038146973,-7.6479997634887695 C-8.515999794006348,-6.7170000076293945 -9.654999732971191,-4.927000045776367 -9.654999732971191,-2.869999885559082 C-9.654999732971191,-2.2809998989105225 -9.559000015258789,-1.715999960899353 -9.385000228881836,-1.187999963760376 C-8.449000358581543,3.0199999809265137 0.0020000000949949026,8.326000213623047 0.0020000000949949026,8.326000213623047 C0.0020000000949949026,8.326000213623047 8.446999549865723,3.0199999809265137 9.383999824523926,-1.187999963760376 C9.557999610900879,-1.715999960899353 9.654999732971191,-2.2820000648498535 9.654999732971191,-2.869999885559082 C9.654999732971191,-4.926000118255615 8.515000343322754,-6.716000080108643 6.834000110626221,-7.6479997634887695z"></path></g></g></mask></defs><g clip-path="url(#__lottie_element_159)"><g clip-path="url(#__lottie_element_161)" transform="matrix(1,0,0,1,-221.5,-102.5)" opacity="1" style="display: block;"><g transform="matrix(1,0,0,1,312.7950134277344,114.63899993896484)" opacity="1" style="display: block;"><g opacity="1" transform="matrix(1,0,0,1,0,0)"><path fill="rgb(164,43,52)" fill-opacity="1" d=" M6.834000110626221,-7.6479997634887695 C6.052000045776367,-8.079000473022461 5.156000137329102,-8.326000213623047 4.198999881744385,-8.326000213623047 C2.510999917984009,-8.326000213623047 1,-7.557000160217285 0.0020000000949949026,-6.35099983215332 C-1.0010000467300415,-7.557000160217285 -2.51200008392334,-8.326000213623047 -4.202000141143799,-8.326000213623047 C-5.156000137329102,-8.326000213623047 -6.051000118255615,-8.079000473022461 -6.835000038146973,-7.6479997634887695 C-8.515999794006348,-6.7170000076293945 -9.654999732971191,-4.927000045776367 -9.654999732971191,-2.869999885559082 C-9.654999732971191,-2.2809998989105225 -9.559000015258789,-1.715999960899353 -9.385000228881836,-1.187999963760376 C-8.449000358581543,3.0199999809265137 0.0020000000949949026,8.326000213623047 0.0020000000949949026,8.326000213623047 C0.0020000000949949026,8.326000213623047 8.446999549865723,3.0199999809265137 9.383999824523926,-1.187999963760376 C9.557999610900879,-1.715999960899353 9.654999732971191,-2.2820000648498535 9.654999732971191,-2.869999885559082 C9.654999732971191,-4.926000118255615 8.515000343322754,-6.716000080108643 6.834000110626221,-7.6479997634887695z"></path></g></g><g mask="url(#__lottie_element_170)" style="display: block;"><g transform="matrix(1,0,0,1,210.86074829101562,-2)" opacity="1"><g opacity="1" transform="matrix(1,0,0,1,115.13999938964844,114.81300354003906)"><path fill="rgb(164,43,52)" fill-opacity="1" d=" M55.034000396728516,8.486000061035156 C55.034000396728516,8.486000061035156 -55.034000396728516,8.486000061035156 -55.034000396728516,8.486000061035156 C-56.11899948120117,8.486000061035156 -57,8.28600025177002 -57,8.038999557495117 C-57,8.038999557495117 -57,-8.038999557495117 -57,-8.038999557495117 C-57,-8.28600025177002 -56.11899948120117,-8.486000061035156 -55.034000396728516,-8.486000061035156 C-55.034000396728516,-8.486000061035156 55.034000396728516,-8.486000061035156 55.034000396728516,-8.486000061035156 C56.11899948120117,-8.486000061035156 57,-8.28600025177002 57,-8.038999557495117 C57,-8.038999557495117 57,8.038999557495117 57,8.038999557495117 C57,8.28600025177002 56.11899948120117,8.486000061035156 55.034000396728516,8.486000061035156z"></path></g><g opacity="1" transform="matrix(1,0,0,1,115.18900299072266,114.81199645996094)"><path fill="rgb(245,245,245)" fill-opacity="1" d=" M14.26200008392334,-3.562999963760376 C19.016000747680664,-3.562999963760376 23.770999908447266,-2.8959999084472656 28.524999618530273,-1.562999963760376 C33.27899932861328,-0.23000000417232513 38.03300094604492,0.43700000643730164 42.7869987487793,0.43700000643730164 C47.54100036621094,0.43700000643730164 52.29499816894531,-0.23000000417232513 57.04899978637695,-1.562999963760376 C57.04899978637695,-1.562999963760376 57.04899978637695,1.562999963760376 57.04899978637695,1.562999963760376 C52.29499816894531,2.8959999084472656 47.54100036621094,3.562999963760376 42.7869987487793,3.562999963760376 C38.3129997253418,3.562999963760376 33.8380012512207,2.9730000495910645 29.36400032043457,1.7920000553131104 C29.36400032043457,1.7920000553131104 28.524999618530273,1.562999963760376 28.524999618530273,1.562999963760376 C23.770999908447266,0.23000000417232513 19.016000747680664,-0.43700000643730164 14.26200008392334,-0.43700000643730164 C9.508000373840332,-0.43700000643730164 4.723999977111816,0.23800000548362732 -0.08900000154972076,1.5889999866485596 C-0.08900000154972076,1.5889999866485596 -0.08900000154972076,1.5870000123977661 -0.08900000154972076,1.5870000123977661 C-0.08900000154972076,1.5870000123977661 -0.8389999866485596,1.7920000553131104 -0.8389999866485596,1.7920000553131104 C-5.313000202178955,2.9730000495910645 -9.788000106811523,3.562999963760376 -14.26200008392334,3.562999963760376 C-18.736000061035156,3.562999963760376 -23.211999893188477,2.9730000495910645 -27.68600082397461,1.7920000553131104 C-27.68600082397461,1.7920000553131104 -28.524999618530273,1.562999963760376 -28.524999618530273,1.562999963760376 C-33.27899932861328,0.23000000417232513 -38.03300094604492,-0.43700000643730164 -42.7869987487793,-0.43700000643730164 C-47.54100036621094,-0.43700000643730164 -52.29499816894531,0.23000000417232513 -57.04899978637695,1.562999963760376 C-57.04899978637695,1.562999963760376 -57.04899978637695,-1.562999963760376 -57.04899978637695,-1.562999963760376 C-52.29499816894531,-2.8959999084472656 -47.54100036621094,-3.562999963760376 -42.7869987487793,-3.562999963760376 C-38.03300094604492,-3.562999963760376 -33.27899932861328,-2.8959999084472656 -28.524999618530273,-1.562999963760376 C-23.770999908447266,-0.23000000417232513 -19.016000747680664,0.43700000643730164 -14.26200008392334,0.43700000643730164 C-9.508000373840332,0.43700000643730164 -4.754000186920166,-0.23000000417232513 0,-1.562999963760376 C0,-1.562999963760376 -0.10899999737739563,-1.5329999923706055 -0.10899999737739563,-1.5329999923706055 C4.7179999351501465,-2.885999917984009 9.508000373840332,-3.562999963760376 14.26200008392334,-3.562999963760376z"></path></g></g></g><g transform="matrix(1,0,0,1,305,115)" opacity="1" style="display: block;"><g opacity="1" transform="matrix(1,0,0,1,0,0)"><path fill="rgb(153,153,153)" fill-opacity="1" d=" M-80.52799987792969,5.5 C-80.52799987792969,5.5 -80.52799987792969,-2.8919999599456787 -80.52799987792969,-2.8919999599456787 C-80.52799987792969,-2.8919999599456787 -76.61599731445312,5.5 -76.61599731445312,5.5 C-76.61599731445312,5.5 -75.85600280761719,5.5 -75.85600280761719,5.5 C-75.85600280761719,5.5 -71.94400024414062,-2.8919999599456787 -71.94400024414062,-2.8919999599456787 C-71.94400024414062,-2.8919999599456787 -71.94400024414062,5.492000102996826 -71.94400024414062,5.492000102996826 C-71.94400024414062,5.492000102996826 -70.59200286865234,5.492000102996826 -70.59200286865234,5.492000102996826 C-70.59200286865234,5.492000102996826 -70.59200286865234,-6.019999980926514 -70.59200286865234,-6.019999980926514 C-70.59200286865234,-6.019999980926514 -71.90399932861328,-6.019999980926514 -71.90399932861328,-6.019999980926514 C-71.90399932861328,-6.019999980926514 -76.23200225830078,3.1559998989105225 -76.23200225830078,3.1559998989105225 C-76.23200225830078,3.1559998989105225 -80.58399963378906,-6.019999980926514 -80.58399963378906,-6.019999980926514 C-80.58399963378906,-6.019999980926514 -81.87999725341797,-6.019999980926514 -81.87999725341797,-6.019999980926514 C-81.87999725341797,-6.019999980926514 -81.87999725341797,5.5 -81.87999725341797,5.5 C-81.87999725341797,5.5 -80.52799987792969,5.5 -80.52799987792969,5.5z M-65.89600372314453,5.739999771118164 C-65.05899810791016,5.739999771118164 -64.3479995727539,5.560999870300293 -63.763999938964844,5.203999996185303 C-63.375,4.966000080108643 -63.04199981689453,4.6519999504089355 -62.768001556396484,4.26200008392334 C-62.768001556396484,4.26200008392334 -62.69599914550781,4.151000022888184 -62.69599914550781,4.151000022888184 C-62.69599914550781,4.151000022888184 -62.69599914550781,5.5 -62.69599914550781,5.5 C-62.69599914550781,5.5 -61.43199920654297,5.5 -61.43199920654297,5.5 C-61.43199920654297,5.5 -61.43199920654297,0.15600000321865082 -61.43199920654297,0.15600000321865082 C-61.43199920654297,-0.1850000023841858 -61.448001861572266,-0.5120000243186951 -61.47999954223633,-0.8240000009536743 C-61.512001037597656,-1.1360000371932983 -61.5890007019043,-1.4249999523162842 -61.71200180053711,-1.6920000314712524 C-61.957000732421875,-2.256999969482422 -62.361000061035156,-2.680000066757202 -62.92399978637695,-2.9600000381469727 C-63.48699951171875,-3.240000009536743 -64.16000366210938,-3.380000114440918 -64.94400024414062,-3.380000114440918 C-65.91999816894531,-3.380000114440918 -66.70700073242188,-3.1640000343322754 -67.30400085449219,-2.7320001125335693 C-67.9010009765625,-2.299999952316284 -68.30400085449219,-1.7050000429153442 -68.51200103759766,-0.9480000138282776 C-68.51200103759766,-0.9480000138282776 -68.51200103759766,-0.9480000138282776 -68.51200103759766,-0.9480000138282776 C-68.51200103759766,-0.9480000138282776 -67.16000366210938,-0.5400000214576721 -67.16000366210938,-0.5400000214576721 C-67,-1.0729999542236328 -66.7239990234375,-1.4589999914169312 -66.33200073242188,-1.6959999799728394 C-65.94000244140625,-1.9329999685287476 -65.48300170898438,-2.052000045776367 -64.95999908447266,-2.052000045776367 C-64.1709976196289,-2.052000045776367 -63.6150016784668,-1.8680000305175781 -63.29199981689453,-1.5 C-63.034000396728516,-1.2059999704360962 -62.88399887084961,-0.7829999923706055 -62.84299850463867,-0.2329999953508377 C-62.84299850463867,-0.2329999953508377 -62.83300018310547,-0.019999999552965164 -62.83300018310547,-0.019999999552965164 C-62.83300018310547,-0.019999999552965164 -63.0260009765625,0.006000000052154064 -63.0260009765625,0.006000000052154064 C-63.14799880981445,0.023000000044703484 -63.27199935913086,0.03999999910593033 -63.39799880981445,0.05700000002980232 C-63.39799880981445,0.05700000002980232 -63.784000396728516,0.1080000028014183 -63.784000396728516,0.1080000028014183 C-64.30699920654297,0.1770000010728836 -64.822998046875,0.2529999911785126 -65.33200073242188,0.335999995470047 C-65.84100341796875,0.4189999997615814 -66.3010025024414,0.515999972820282 -66.71199798583984,0.628000020980835 C-67.14900207519531,0.7559999823570251 -67.5250015258789,0.9309999942779541 -67.83999633789062,1.1519999504089355 C-68.15499877929688,1.3730000257492065 -68.39900207519531,1.6510000228881836 -68.5719985961914,1.9839999675750732 C-68.74500274658203,2.316999912261963 -68.83200073242188,2.7109999656677246 -68.83200073242188,3.1640000343322754 C-68.83200073242188,3.628000020980835 -68.72100067138672,4.054999828338623 -68.5,4.443999767303467 C-68.27899932861328,4.833000183105469 -67.95099639892578,5.146999835968018 -67.51599884033203,5.383999824523926 C-67.08100128173828,5.620999813079834 -66.54100036621094,5.739999771118164 -65.89600372314453,5.739999771118164z M-65.68000030517578,4.547999858856201 C-66.09100341796875,4.547999858856201 -66.4229965209961,4.480999946594238 -66.6760025024414,4.3480000495910645 C-66.92900085449219,4.215000152587891 -67.11599731445312,4.040999889373779 -67.23600006103516,3.828000068664551 C-67.35600280761719,3.615000009536743 -67.41600036621094,3.3910000324249268 -67.41600036621094,3.1559998989105225 C-67.41600036621094,2.884000062942505 -67.35299682617188,2.6559998989105225 -67.22799682617188,2.4719998836517334 C-67.10299682617188,2.2880001068115234 -66.93699645996094,2.13700008392334 -66.73200225830078,2.0199999809265137 C-66.5270004272461,1.902999997138977 -66.30699920654297,1.8070000410079956 -66.0719985961914,1.7319999933242798 C-65.75199890136719,1.6410000324249268 -65.39199829101562,1.562999963760376 -64.99199676513672,1.496000051498413 C-64.59200286865234,1.4290000200271606 -64.16799926757812,1.3669999837875366 -63.720001220703125,1.3079999685287476 C-63.27199935913086,1.2489999532699585 -62.816001892089844,1.187999963760376 -62.35200119018555,1.1239999532699585 C-62.35200119018555,1.1239999532699585 -62.85100173950195,1.1920000314712524 -62.85100173950195,1.1920000314712524 C-62.85100173950195,1.1920000314712524 -62.85200119018555,1.3070000410079956 -62.85200119018555,1.3070000410079956 C-62.85300064086914,1.3600000143051147 -62.85499954223633,1.4160000085830688 -62.85599899291992,1.4759999513626099 C-62.85599899291992,1.4759999513626099 -62.86000061035156,1.6640000343322754 -62.86000061035156,1.6640000343322754 C-62.86800003051758,1.9919999837875366 -62.9119987487793,2.2890000343322754 -62.992000579833984,2.555999994277954 C-63.06100082397461,2.9130001068115234 -63.21099853515625,3.243000030517578 -63.439998626708984,3.5439999103546143 C-63.66899871826172,3.8450000286102295 -63.97200012207031,4.0879998207092285 -64.3479995727539,4.271999835968018 C-64.7239990234375,4.455999851226807 -65.16799926757812,4.547999858856201 -65.68000030517578,4.547999858856201z M-55.959999084472656,5.739999771118164 C-55.14899826049805,5.739999771118164 -54.46699905395508,5.539000034332275 -53.9119987487793,5.136000156402588 C-53.72700119018555,5.001999855041504 -53.55699920654297,4.85099983215332 -53.402000427246094,4.684999942779541 C-53.402000427246094,4.684999942779541 -53.25600051879883,4.517000198364258 -53.25600051879883,4.517000198364258 C-53.25600051879883,4.517000198364258 -53.25600051879883,5.5 -53.25600051879883,5.5 C-53.25600051879883,5.5 -51.98400115966797,5.5 -51.98400115966797,5.5 C-51.98400115966797,5.5 -51.98400115966797,-6.019999980926514 -51.98400115966797,-6.019999980926514 C-51.98400115966797,-6.019999980926514 -53.41600036621094,-6.019999980926514 -53.41600036621094,-6.019999980926514 C-53.41600036621094,-6.019999980926514 -53.41600036621094,-2.3570001125335693 -53.41600036621094,-2.3570001125335693 C-53.41600036621094,-2.3570001125335693 -53.5620002746582,-2.503000020980835 -53.5620002746582,-2.503000020980835 C-53.617000579833984,-2.553999900817871 -53.67399978637695,-2.6040000915527344 -53.731998443603516,-2.6510000228881836 C-53.731998443603516,-2.6510000228881836 -53.9119987487793,-2.7880001068115234 -53.9119987487793,-2.7880001068115234 C-54.46699905395508,-3.183000087738037 -55.152000427246094,-3.380000114440918 -55.96799850463867,-3.380000114440918 C-56.768001556396484,-3.380000114440918 -57.45600128173828,-3.180999994277954 -58.03200149536133,-2.7839999198913574 C-58.608001708984375,-2.38700008392334 -59.051998138427734,-1.843999981880188 -59.36399841308594,-1.156000018119812 C-59.67599868774414,-0.46799999475479126 -59.832000732421875,0.30799999833106995 -59.832000732421875,1.1720000505447388 C-59.832000732421875,2.0360000133514404 -59.67599868774414,2.812000036239624 -59.36399841308594,3.5 C-59.051998138427734,4.188000202178955 -58.608001708984375,4.732999801635742 -58.03200149536133,5.136000156402588 C-57.45600128173828,5.539000034332275 -56.76499938964844,5.739999771118164 -55.959999084472656,5.739999771118164z M-55.784000396728516,4.435999870300293 C-56.3489990234375,4.435999870300293 -56.81999969482422,4.291999816894531 -57.19599914550781,4.004000186920166 C-57.571998596191406,3.7160000801086426 -57.85300064086914,3.325000047683716 -58.040000915527344,2.8320000171661377 C-58.22700119018555,2.3389999866485596 -58.31999969482422,1.784999966621399 -58.31999969482422,1.1720000505447388 C-58.31999969482422,0.5640000104904175 -58.22800064086914,0.014999999664723873 -58.04399871826172,-0.47600001096725464 C-57.86000061035156,-0.9670000076293945 -57.57699966430664,-1.3559999465942383 -57.19599914550781,-1.6440000534057617 C-56.814998626708984,-1.9320000410079956 -56.33100128173828,-2.0759999752044678 -55.74399948120117,-2.0759999752044678 C-55.17900085449219,-2.0759999752044678 -54.71200180053711,-1.9390000104904175 -54.34400177001953,-1.6640000343322754 C-53.97600173950195,-1.3890000581741333 -53.702999114990234,-1.0080000162124634 -53.52399826049805,-0.5199999809265137 C-53.345001220703125,-0.03200000151991844 -53.25600051879883,0.5320000052452087 -53.25600051879883,1.1720000505447388 C-53.25600051879883,1.8009999990463257 -53.345001220703125,2.36299991607666 -53.52399826049805,2.8559999465942383 C-53.702999114990234,3.3489999771118164 -53.979000091552734,3.7360000610351562 -54.35200119018555,4.015999794006348 C-54.724998474121094,4.296000003814697 -55.202999114990234,4.435999870300293 -55.784000396728516,4.435999870300293z M-42.071998596191406,1.5800000429153442 C-42.02899932861328,0.5559999942779541 -42.1609992980957,-0.3269999921321869 -42.46799850463867,-1.0679999589920044 C-42.775001525878906,-1.809000015258789 -43.233001708984375,-2.380000114440918 -43.84400177001953,-2.7799999713897705 C-44.45500183105469,-3.180000066757202 -45.19499969482422,-3.380000114440918 -46.06399917602539,-3.380000114440918 C-46.9010009765625,-3.380000114440918 -47.63100051879883,-3.191999912261963 -48.25199890136719,-2.815999984741211 C-48.87300109863281,-2.440000057220459 -49.356998443603516,-1.906999945640564 -49.70399856567383,-1.215999960899353 C-50.05099868774414,-0.5249999761581421 -50.2239990234375,0.2919999957084656 -50.2239990234375,1.2359999418258667 C-50.2239990234375,2.13700008392334 -50.04800033569336,2.924999952316284 -49.69599914550781,3.5999999046325684 C-49.34400177001953,4.275000095367432 -48.85200119018555,4.800000190734863 -48.220001220703125,5.176000118255615 C-47.5880012512207,5.552000045776367 -46.847999572753906,5.739999771118164 -46,5.739999771118164 C-45.16299819946289,5.739999771118164 -44.40700149536133,5.531000137329102 -43.731998443603516,5.111999988555908 C-43.05699920654297,4.692999839782715 -42.551998138427734,4.103000164031982 -42.215999603271484,3.3399999141693115 C-42.215999603271484,3.3399999141693115 -42.215999603271484,3.3399999141693115 -42.215999603271484,3.3399999141693115 C-42.215999603271484,3.3399999141693115 -43.58399963378906,2.868000030517578 -43.58399963378906,2.868000030517578 C-43.82400131225586,3.3589999675750732 -44.154998779296875,3.734999895095825 -44.57600021362305,3.996000051498413 C-44.99700164794922,4.256999969482422 -45.49300003051758,4.388000011444092 -46.06399917602539,4.388000011444092 C-46.9119987487793,4.388000011444092 -47.564998626708984,4.107999801635742 -48.02399826049805,3.5480000972747803 C-48.39899826049805,3.0899999141693115 -48.62099838256836,2.4779999256134033 -48.68899917602539,1.7130000591278076 C-48.68899917602539,1.7130000591278076 -48.69900131225586,1.5800000429153442 -48.69900131225586,1.5800000429153442 C-48.69900131225586,1.5800000429153442 -42.80799865722656,1.5800000429153442 -42.80799865722656,1.5800000429153442 C-42.80799865722656,1.5800000429153442 -42.071998596191406,1.5800000429153442 -42.071998596191406,1.5800000429153442z M-43.54999923706055,0.4359999895095825 C-43.54999923706055,0.4359999895095825 -48.66999816894531,0.4359999895095825 -48.66999816894531,0.4359999895095825 C-48.59299850463867,-0.18799999356269836 -48.41400146484375,-0.7020000219345093 -48.13399887084961,-1.1059999465942383 C-48.13399887084961,-1.1059999465942383 -48.02399826049805,-1.2519999742507935 -48.02399826049805,-1.2519999742507935 C-47.564998626708984,-1.8170000314712524 -46.895999908447266,-2.0999999046325684 -46.01599884033203,-2.0999999046325684 C-45.19499969482422,-2.0999999046325684 -44.57600021362305,-1.8370000123977661 -44.15999984741211,-1.312000036239624 C-43.847999572753906,-0.9179999828338623 -43.64799880981445,-0.37299999594688416 -43.56100082397461,0.32199999690055847 C-43.56100082397461,0.32199999690055847 -43.54999923706055,0.4359999895095825 -43.54999923706055,0.4359999895095825z M-34.071998596191406,5.5 C-34.071998596191406,5.5 -31.983999252319336,-1.0679999589920044 -31.983999252319336,-1.0679999589920044 C-31.983999252319336,-1.0679999589920044 -29.895999908447266,5.5 -29.895999908447266,5.5 C-29.895999908447266,5.5 -28.711999893188477,5.5 -28.711999893188477,5.5 C-28.711999893188477,5.5 -26.07200050354004,-3.140000104904175 -26.07200050354004,-3.140000104904175 C-26.07200050354004,-3.140000104904175 -27.479999542236328,-3.140000104904175 -27.479999542236328,-3.140000104904175 C-27.479999542236328,-3.140000104904175 -29.416000366210938,3.180000066757202 -29.416000366210938,3.180000066757202 C-29.416000366210938,3.180000066757202 -31.351999282836914,-3.140000104904175 -31.351999282836914,-3.140000104904175 C-31.351999282836914,-3.140000104904175 -32.608001708984375,-3.140000104904175 -32.608001708984375,-3.140000104904175 C-32.608001708984375,-3.140000104904175 -34.551998138427734,3.180000066757202 -34.551998138427734,3.180000066757202 C-34.551998138427734,3.180000066757202 -36.47999954223633,-3.140000104904175 -36.47999954223633,-3.140000104904175 C-36.47999954223633,-3.140000104904175 -37.895999908447266,-3.1480000019073486 -37.895999908447266,-3.1480000019073486 C-37.895999908447266,-3.1480000019073486 -35.25600051879883,5.5 -35.25600051879883,5.5 C-35.25600051879883,5.5 -34.071998596191406,5.5 -34.071998596191406,5.5z M-23.04800033569336,-4.668000221252441 C-23.04800033569336,-4.668000221252441 -23.04800033569336,-6.139999866485596 -23.04800033569336,-6.139999866485596 C-23.04800033569336,-6.139999866485596 -24.472000122070312,-6.139999866485596 -24.472000122070312,-6.139999866485596 C-24.472000122070312,-6.139999866485596 -24.472000122070312,-4.668000221252441 -24.472000122070312,-4.668000221252441 C-24.472000122070312,-4.668000221252441 -23.04800033569336,-4.668000221252441 -23.04800033569336,-4.668000221252441z M-23.04800033569336,5.5 C-23.04800033569336,5.5 -23.04800033569336,-3.140000104904175 -23.04800033569336,-3.140000104904175 C-23.04800033569336,-3.140000104904175 -24.472000122070312,-3.140000104904175 -24.472000122070312,-3.140000104904175 C-24.472000122070312,-3.140000104904175 -24.472000122070312,5.5 -24.472000122070312,5.5 C-24.472000122070312,5.5 -23.04800033569336,5.5 -23.04800033569336,5.5z M-17.34000015258789,5.624000072479248 C-16.840999603271484,5.64300012588501 -16.336000442504883,5.60099983215332 -15.824000358581543,5.5 C-15.824000358581543,5.5 -15.824000358581543,5.5 -15.824000358581543,5.5 C-15.824000358581543,5.5 -15.824000358581543,4.276000022888184 -15.824000358581543,4.276000022888184 C-16.416000366210938,4.367000102996826 -16.92099952697754,4.382999897003174 -17.34000015258789,4.323999881744385 C-17.759000778198242,4.264999866485596 -18.06399917602539,4.065000057220459 -18.256000518798828,3.7239999771118164 C-18.35700035095215,3.5429999828338623 -18.41200065612793,3.3269999027252197 -18.420000076293945,3.0759999752044678 C-18.42799949645996,2.825000047683716 -18.43199920654297,2.5239999294281006 -18.43199920654297,2.171999931335449 C-18.43199920654297,2.171999931335449 -18.43199920654297,-1.9639999866485596 -18.43199920654297,-1.9639999866485596 C-18.43199920654297,-1.9639999866485596 -15.824000358581543,-1.9639999866485596 -15.824000358581543,-1.9639999866485596 C-15.824000358581543,-1.9639999866485596 -15.824000358581543,-3.140000104904175 -15.824000358581543,-3.140000104904175 C-15.824000358581543,-3.140000104904175 -18.43199920654297,-3.140000104904175 -18.43199920654297,-3.140000104904175 C-18.43199920654297,-3.140000104904175 -18.43199920654297,-5.539999961853027 -18.43199920654297,-5.539999961853027 C-18.43199920654297,-5.539999961853027 -19.856000900268555,-5.539999961853027 -19.856000900268555,-5.539999961853027 C-19.856000900268555,-5.539999961853027 -19.856000900268555,-3.140000104904175 -19.856000900268555,-3.140000104904175 C-19.856000900268555,-3.140000104904175 -21.607999801635742,-3.140000104904175 -21.607999801635742,-3.140000104904175 C-21.607999801635742,-3.140000104904175 -21.607999801635742,-1.9639999866485596 -21.607999801635742,-1.9639999866485596 C-21.607999801635742,-1.9639999866485596 -19.856000900268555,-1.9639999866485596 -19.856000900268555,-1.9639999866485596 C-19.856000900268555,-1.9639999866485596 -19.856000900268555,2.2360000610351562 -19.856000900268555,2.2360000610351562 C-19.856000900268555,2.568000078201294 -19.85300064086914,2.874000072479248 -19.844999313354492,3.1530001163482666 C-19.844999313354492,3.1530001163482666 -19.836000442504883,3.4240000247955322 -19.836000442504883,3.4240000247955322 C-19.822999954223633,3.7730000019073486 -19.731000900268555,4.11899995803833 -19.559999465942383,4.460000038146973 C-19.35700035095215,4.848999977111816 -19.06100082397461,5.136000156402588 -18.672000885009766,5.320000171661377 C-18.283000946044922,5.504000186920166 -17.839000701904297,5.605000019073486 -17.34000015258789,5.624000072479248z M-12.631999969482422,5.5 C-12.631999969482422,5.5 -12.631999969482422,0.9480000138282776 -12.631999969482422,0.9480000138282776 C-12.631999969482422,0.44699999690055847 -12.574999809265137,0.010999999940395355 -12.460000038146973,-0.36000001430511475 C-12.345000267028809,-0.7310000061988831 -12.184000015258789,-1.0390000343322754 -11.97599983215332,-1.284000039100647 C-11.767999649047852,-1.5290000438690186 -11.519000053405762,-1.7120000123977661 -11.227999687194824,-1.8320000171661377 C-10.937000274658203,-1.9520000219345093 -10.61299991607666,-2.01200008392334 -10.255999565124512,-2.01200008392334 C-9.79699993133545,-2.01200008392334 -9.416999816894531,-1.9240000247955322 -9.116000175476074,-1.7480000257492065 C-8.8149995803833,-1.5720000267028809 -8.574999809265137,-1.3329999446868896 -8.395999908447266,-1.031999945640564 C-8.217000007629395,-0.7310000061988831 -8.092000007629395,-0.39100000262260437 -8.020000457763672,-0.012000000104308128 C-7.947999954223633,0.367000013589859 -7.9120001792907715,0.7609999775886536 -7.9120001792907715,1.1720000505447388 C-7.9120001792907715,1.1720000505447388 -7.9120001792907715,1.1720000505447388 -7.9120001792907715,1.1720000505447388 C-7.9120001792907715,1.1720000505447388 -7.9120001792907715,5.5 -7.9120001792907715,5.5 C-7.9120001792907715,5.5 -6.4720001220703125,5.5 -6.4720001220703125,5.5 C-6.4720001220703125,5.5 -6.4720001220703125,0.7239999771118164 -6.4720001220703125,0.7239999771118164 C-6.4720001220703125,0.3930000066757202 -6.502999782562256,0.0430000014603138 -6.564000129699707,-0.328000009059906 C-6.625,-0.6990000009536743 -6.730999946594238,-1.0640000104904175 -6.880000114440918,-1.4240000247955322 C-7.0289998054504395,-1.784000039100647 -7.235000133514404,-2.1089999675750732 -7.495999813079834,-2.4000000953674316 C-7.756999969482422,-2.690999984741211 -8.085000038146973,-2.9240000247955322 -8.479999542236328,-3.0999999046325684 C-8.875,-3.2760000228881836 -9.35200023651123,-3.364000082015991 -9.911999702453613,-3.364000082015991 C-10.652999877929688,-3.364000082015991 -11.29699993133545,-3.203000068664551 -11.843999862670898,-2.880000114440918 C-12.185999870300293,-2.677999973297119 -12.479000091552734,-2.4230000972747803 -12.725000381469727,-2.11299991607666 C-12.725000381469727,-2.11299991607666 -12.791999816894531,-2.0220000743865967 -12.791999816894531,-2.0220000743865967 C-12.791999816894531,-2.0220000743865967 -12.791999816894531,-6.019999980926514 -12.791999816894531,-6.019999980926514 C-12.791999816894531,-6.019999980926514 -14.071999549865723,-6.019999980926514 -14.071999549865723,-6.019999980926514 C-14.071999549865723,-6.019999980926514 -14.071999549865723,5.5 -14.071999549865723,5.5 C-14.071999549865723,5.5 -12.631999969482422,5.5 -12.631999969482422,5.5z M22.79199981689453,-4.668000221252441 C22.79199981689453,-4.668000221252441 22.79199981689453,-6.139999866485596 22.79199981689453,-6.139999866485596 C22.79199981689453,-6.139999866485596 21.368000030517578,-6.139999866485596 21.368000030517578,-6.139999866485596 C21.368000030517578,-6.139999866485596 21.368000030517578,-4.668000221252441 21.368000030517578,-4.668000221252441 C21.368000030517578,-4.668000221252441 22.79199981689453,-4.668000221252441 22.79199981689453,-4.668000221252441z M22.79199981689453,5.5 C22.79199981689453,5.5 22.79199981689453,-3.140000104904175 22.79199981689453,-3.140000104904175 C22.79199981689453,-3.140000104904175 21.368000030517578,-3.140000104904175 21.368000030517578,-3.140000104904175 C21.368000030517578,-3.140000104904175 21.368000030517578,5.5 21.368000030517578,5.5 C21.368000030517578,5.5 22.79199981689453,5.5 22.79199981689453,5.5z M26.624000549316406,5.5 C26.624000549316406,5.5 26.624000549316406,0.9480000138282776 26.624000549316406,0.9480000138282776 C26.624000549316406,0.44699999690055847 26.680999755859375,0.010999999940395355 26.79599952697754,-0.36000001430511475 C26.910999298095703,-0.7310000061988831 27.07200050354004,-1.0390000343322754 27.280000686645508,-1.284000039100647 C27.488000869750977,-1.5290000438690186 27.73699951171875,-1.7120000123977661 28.027999877929688,-1.8320000171661377 C28.319000244140625,-1.9520000219345093 28.64299964904785,-2.01200008392334 29,-2.01200008392334 C29.458999633789062,-2.01200008392334 29.839000701904297,-1.9240000247955322 30.139999389648438,-1.7480000257492065 C30.44099998474121,-1.5720000267028809 30.680999755859375,-1.3329999446868896 30.860000610351562,-1.031999945640564 C31.038999557495117,-0.7310000061988831 31.163999557495117,-0.39100000262260437 31.236000061035156,-0.012000000104308128 C31.308000564575195,0.367000013589859 31.3439998626709,0.7609999775886536 31.3439998626709,1.1720000505447388 C31.3439998626709,1.1720000505447388 31.3439998626709,1.1720000505447388 31.3439998626709,1.1720000505447388 C31.3439998626709,1.1720000505447388 31.3439998626709,5.5 31.3439998626709,5.5 C31.3439998626709,5.5 32.784000396728516,5.5 32.784000396728516,5.5 C32.784000396728516,5.5 32.784000396728516,0.7239999771118164 32.784000396728516,0.7239999771118164 C32.784000396728516,0.3930000066757202 32.75299835205078,0.0430000014603138 32.69200134277344,-0.328000009059906 C32.63100051879883,-0.6990000009536743 32.525001525878906,-1.0640000104904175 32.375999450683594,-1.4240000247955322 C32.22700119018555,-1.784000039100647 32.020999908447266,-2.1089999675750732 31.760000228881836,-2.4000000953674316 C31.499000549316406,-2.690999984741211 31.17099952697754,-2.9240000247955322 30.775999069213867,-3.0999999046325684 C30.381000518798828,-3.2760000228881836 29.90399932861328,-3.364000082015991 29.3439998626709,-3.364000082015991 C28.60300064086914,-3.364000082015991 27.958999633789062,-3.203000068664551 27.41200065612793,-2.880000114440918 C27.06999969482422,-2.677999973297119 26.777000427246094,-2.4230000972747803 26.5310001373291,-2.11299991607666 C26.5310001373291,-2.11299991607666 26.464000701904297,-2.0220000743865967 26.464000701904297,-2.0220000743865967 C26.464000701904297,-2.0220000743865967 26.464000701904297,-3.140000104904175 26.464000701904297,-3.140000104904175 C26.464000701904297,-3.140000104904175 25.18400001525879,-3.140000104904175 25.18400001525879,-3.140000104904175 C25.18400001525879,-3.140000104904175 25.18400001525879,5.5 25.18400001525879,5.5 C25.18400001525879,5.5 26.624000549316406,5.5 26.624000549316406,5.5z M44.992000579833984,5.5 C44.992000579833984,5.5 44.992000579833984,4.1479997634887695 44.992000579833984,4.1479997634887695 C44.992000579833984,4.1479997634887695 39.64799880981445,4.1479997634887695 39.64799880981445,4.1479997634887695 C39.64799880981445,4.1479997634887695 39.64799880981445,-6.019999980926514 39.64799880981445,-6.019999980926514 C39.64799880981445,-6.019999980926514 38.2239990234375,-6.019999980926514 38.2239990234375,-6.019999980926514 C38.2239990234375,-6.019999980926514 38.2239990234375,5.5 38.2239990234375,5.5 C38.2239990234375,5.5 44.992000579833984,5.5 44.992000579833984,5.5z M48.80799865722656,5.739999771118164 C49.64500045776367,5.739999771118164 50.35599899291992,5.560999870300293 50.939998626708984,5.203999996185303 C51.32899856567383,4.966000080108643 51.6619987487793,4.6519999504089355 51.93600082397461,4.26200008392334 C51.93600082397461,4.26200008392334 52.007999420166016,4.151000022888184 52.007999420166016,4.151000022888184 C52.007999420166016,4.151000022888184 52.007999420166016,5.5 52.007999420166016,5.5 C52.007999420166016,5.5 53.27199935913086,5.5 53.27199935913086,5.5 C53.27199935913086,5.5 53.27199935913086,0.15600000321865082 53.27199935913086,0.15600000321865082 C53.27199935913086,-0.1850000023841858 53.25600051879883,-0.5120000243186951 53.2239990234375,-0.8240000009536743 C53.19200134277344,-1.1360000371932983 53.1150016784668,-1.4249999523162842 52.992000579833984,-1.6920000314712524 C52.74700164794922,-2.256999969482422 52.34299850463867,-2.680000066757202 51.779998779296875,-2.9600000381469727 C51.21699905395508,-3.240000009536743 50.54399871826172,-3.380000114440918 49.7599983215332,-3.380000114440918 C48.784000396728516,-3.380000114440918 47.99700164794922,-3.1640000343322754 47.400001525878906,-2.7320001125335693 C46.803001403808594,-2.299999952316284 46.400001525878906,-1.7050000429153442 46.19200134277344,-0.9480000138282776 C46.19200134277344,-0.9480000138282776 46.19200134277344,-0.9480000138282776 46.19200134277344,-0.9480000138282776 C46.19200134277344,-0.9480000138282776 47.54399871826172,-0.5400000214576721 47.54399871826172,-0.5400000214576721 C47.70399856567383,-1.0729999542236328 47.97999954223633,-1.4589999914169312 48.37200164794922,-1.6959999799728394 C48.763999938964844,-1.9329999685287476 49.22100067138672,-2.052000045776367 49.74399948120117,-2.052000045776367 C50.53300094604492,-2.052000045776367 51.0890007019043,-1.8680000305175781 51.4119987487793,-1.5 C51.66999816894531,-1.2059999704360962 51.81999969482422,-0.7829999923706055 51.861000061035156,-0.2329999953508377 C51.861000061035156,-0.2329999953508377 51.87099838256836,-0.019999999552965164 51.87099838256836,-0.019999999552965164 C51.87099838256836,-0.019999999552965164 51.678001403808594,0.006000000052154064 51.678001403808594,0.006000000052154064 C51.555999755859375,0.023000000044703484 51.430999755859375,0.03999999910593033 51.30500030517578,0.05700000002980232 C51.30500030517578,0.05700000002980232 50.91999816894531,0.1080000028014183 50.91999816894531,0.1080000028014183 C50.39699935913086,0.1770000010728836 49.88100051879883,0.2529999911785126 49.37200164794922,0.335999995470047 C48.862998962402344,0.4189999997615814 48.40299987792969,0.515999972820282 47.992000579833984,0.628000020980835 C47.55500030517578,0.7559999823570251 47.17900085449219,0.9309999942779541 46.86399841308594,1.1519999504089355 C46.54899978637695,1.3730000257492065 46.30500030517578,1.6510000228881836 46.13199996948242,1.9839999675750732 C45.95899963378906,2.316999912261963 45.87200164794922,2.7109999656677246 45.87200164794922,3.1640000343322754 C45.87200164794922,3.628000020980835 45.983001708984375,4.054999828338623 46.20399856567383,4.443999767303467 C46.42499923706055,4.833000183105469 46.75299835205078,5.146999835968018 47.1879997253418,5.383999824523926 C47.62300109863281,5.620999813079834 48.16299819946289,5.739999771118164 48.80799865722656,5.739999771118164z M49.02399826049805,4.547999858856201 C48.612998962402344,4.547999858856201 48.28099822998047,4.480999946594238 48.02799987792969,4.3480000495910645 C47.775001525878906,4.215000152587891 47.5880012512207,4.040999889373779 47.46799850463867,3.828000068664551 C47.347999572753906,3.615000009536743 47.28799819946289,3.3910000324249268 47.28799819946289,3.1559998989105225 C47.28799819946289,2.884000062942505 47.35100173950195,2.6559998989105225 47.47600173950195,2.4719998836517334 C47.60100173950195,2.2880001068115234 47.766998291015625,2.13700008392334 47.97200012207031,2.0199999809265137 C48.176998138427734,1.902999997138977 48.39699935913086,1.8070000410079956 48.63199996948242,1.7319999933242798 C48.95199966430664,1.6410000324249268 49.3120002746582,1.562999963760376 49.71200180053711,1.496000051498413 C50.11199951171875,1.4290000200271606 50.5359992980957,1.3669999837875366 50.98400115966797,1.3079999685287476 C51.43199920654297,1.2489999532699585 51.88800048828125,1.187999963760376 52.35200119018555,1.1239999532699585 C52.35200119018555,1.1239999532699585 51.85300064086914,1.1920000314712524 51.85300064086914,1.1920000314712524 C51.85300064086914,1.1920000314712524 51.85200119018555,1.3070000410079956 51.85200119018555,1.3070000410079956 C51.85100173950195,1.3600000143051147 51.8489990234375,1.4160000085830688 51.847999572753906,1.4759999513626099 C51.847999572753906,1.4759999513626099 51.84400177001953,1.6640000343322754 51.84400177001953,1.6640000343322754 C51.83599853515625,1.9919999837875366 51.79199981689453,2.2890000343322754 51.71200180053711,2.555999994277954 C51.643001556396484,2.9130001068115234 51.49300003051758,3.243000030517578 51.263999938964844,3.5439999103546143 C51.03499984741211,3.8450000286102295 50.731998443603516,4.0879998207092285 50.35599899291992,4.271999835968018 C49.97999954223633,4.455999851226807 49.5359992980957,4.547999858856201 49.02399826049805,4.547999858856201z M58.65999984741211,5.624000072479248 C59.159000396728516,5.64300012588501 59.66400146484375,5.60099983215332 60.17599868774414,5.5 C60.17599868774414,5.5 60.17599868774414,5.5 60.17599868774414,5.5 C60.17599868774414,5.5 60.17599868774414,4.276000022888184 60.17599868774414,4.276000022888184 C59.58399963378906,4.367000102996826 59.07899856567383,4.382999897003174 58.65999984741211,4.323999881744385 C58.24100112915039,4.264999866485596 57.93600082397461,4.065000057220459 57.74399948120117,3.7239999771118164 C57.643001556396484,3.5429999828338623 57.5880012512207,3.3269999027252197 57.58000183105469,3.0759999752044678 C57.571998596191406,2.825000047683716 57.56800079345703,2.5239999294281006 57.56800079345703,2.171999931335449 C57.56800079345703,2.171999931335449 57.56800079345703,-1.9639999866485596 57.56800079345703,-1.9639999866485596 C57.56800079345703,-1.9639999866485596 60.17599868774414,-1.9639999866485596 60.17599868774414,-1.9639999866485596 C60.17599868774414,-1.9639999866485596 60.17599868774414,-3.140000104904175 60.17599868774414,-3.140000104904175 C60.17599868774414,-3.140000104904175 57.56800079345703,-3.140000104904175 57.56800079345703,-3.140000104904175 C57.56800079345703,-3.140000104904175 57.56800079345703,-5.539999961853027 57.56800079345703,-5.539999961853027 C57.56800079345703,-5.539999961853027 56.14400100708008,-5.539999961853027 56.14400100708008,-5.539999961853027 C56.14400100708008,-5.539999961853027 56.14400100708008,-3.140000104904175 56.14400100708008,-3.140000104904175 C56.14400100708008,-3.140000104904175 54.391998291015625,-3.140000104904175 54.391998291015625,-3.140000104904175 C54.391998291015625,-3.140000104904175 54.391998291015625,-1.9639999866485596 54.391998291015625,-1.9639999866485596 C54.391998291015625,-1.9639999866485596 56.14400100708008,-1.9639999866485596 56.14400100708008,-1.9639999866485596 C56.14400100708008,-1.9639999866485596 56.14400100708008,2.2360000610351562 56.14400100708008,2.2360000610351562 C56.14400100708008,2.568000078201294 56.14799880981445,2.874000072479248 56.154998779296875,3.1530001163482666 C56.154998779296875,3.1530001163482666 56.16400146484375,3.4240000247955322 56.16400146484375,3.4240000247955322 C56.176998138427734,3.7730000019073486 56.26900100708008,4.11899995803833 56.439998626708984,4.460000038146973 C56.643001556396484,4.848999977111816 56.93899917602539,5.136000156402588 57.327999114990234,5.320000171661377 C57.71699905395508,5.504000186920166 58.1609992980957,5.605000019073486 58.65999984741211,5.624000072479248z M65.72799682617188,5.5 C65.72799682617188,5.5 68.86399841308594,-3.140000104904175 68.86399841308594,-3.140000104904175 C68.86399841308594,-3.140000104904175 67.41600036621094,-3.140000104904175 67.41600036621094,-3.140000104904175 C67.41600036621094,-3.140000104904175 65,3.684000015258789 65,3.684000015258789 C65,3.684000015258789 62.57600021362305,-3.140000104904175 62.57600021362305,-3.140000104904175 C62.57600021362305,-3.140000104904175 61.13600158691406,-3.140000104904175 61.13600158691406,-3.140000104904175 C61.13600158691406,-3.140000104904175 64.27200317382812,5.5 64.27200317382812,5.5 C64.27200317382812,5.5 65.72799682617188,5.5 65.72799682617188,5.5z M71.88800048828125,-4.668000221252441 C71.88800048828125,-4.668000221252441 71.88800048828125,-6.139999866485596 71.88800048828125,-6.139999866485596 C71.88800048828125,-6.139999866485596 70.46399688720703,-6.139999866485596 70.46399688720703,-6.139999866485596 C70.46399688720703,-6.139999866485596 70.46399688720703,-4.668000221252441 70.46399688720703,-4.668000221252441 C70.46399688720703,-4.668000221252441 71.88800048828125,-4.668000221252441 71.88800048828125,-4.668000221252441z M71.88800048828125,5.5 C71.88800048828125,5.5 71.88800048828125,-3.140000104904175 71.88800048828125,-3.140000104904175 C71.88800048828125,-3.140000104904175 70.46399688720703,-3.140000104904175 70.46399688720703,-3.140000104904175 C70.46399688720703,-3.140000104904175 70.46399688720703,5.5 70.46399688720703,5.5 C70.46399688720703,5.5 71.88800048828125,5.5 71.88800048828125,5.5z M76.74400329589844,5.739999771118164 C77.58100128173828,5.739999771118164 78.29199981689453,5.560999870300293 78.8759994506836,5.203999996185303 C79.26499938964844,4.966000080108643 79.5979995727539,4.6519999504089355 79.87200164794922,4.26200008392334 C79.87200164794922,4.26200008392334 79.94400024414062,4.151000022888184 79.94400024414062,4.151000022888184 C79.94400024414062,4.151000022888184 79.94400024414062,5.5 79.94400024414062,5.5 C79.94400024414062,5.5 81.20800018310547,5.5 81.20800018310547,5.5 C81.20800018310547,5.5 81.20800018310547,0.15600000321865082 81.20800018310547,0.15600000321865082 C81.20800018310547,-0.1850000023841858 81.19200134277344,-0.5120000243186951 81.16000366210938,-0.8240000009536743 C81.12799835205078,-1.1360000371932983 81.0510025024414,-1.4249999523162842 80.9280014038086,-1.6920000314712524 C80.68299865722656,-2.256999969482422 80.27899932861328,-2.680000066757202 79.71600341796875,-2.9600000381469727 C79.15299987792969,-3.240000009536743 78.4800033569336,-3.380000114440918 77.69599914550781,-3.380000114440918 C76.72000122070312,-3.380000114440918 75.93299865722656,-3.1640000343322754 75.33599853515625,-2.7320001125335693 C74.73899841308594,-2.299999952316284 74.33599853515625,-1.7050000429153442 74.12799835205078,-0.9480000138282776 C74.12799835205078,-0.9480000138282776 74.12799835205078,-0.9480000138282776 74.12799835205078,-0.9480000138282776 C74.12799835205078,-0.9480000138282776 75.4800033569336,-0.5400000214576721 75.4800033569336,-0.5400000214576721 C75.63999938964844,-1.0729999542236328 75.91600036621094,-1.4589999914169312 76.30799865722656,-1.6959999799728394 C76.69999694824219,-1.9329999685287476 77.15699768066406,-2.052000045776367 77.68000030517578,-2.052000045776367 C78.46900177001953,-2.052000045776367 79.0250015258789,-1.8680000305175781 79.3479995727539,-1.5 C79.60600280761719,-1.2059999704360962 79.75599670410156,-0.7829999923706055 79.7969970703125,-0.2329999953508377 C79.7969970703125,-0.2329999953508377 79.80699920654297,-0.019999999552965164 79.80699920654297,-0.019999999552965164 C79.80699920654297,-0.019999999552965164 79.61399841308594,0.006000000052154064 79.61399841308594,0.006000000052154064 C79.49199676513672,0.023000000044703484 79.36799621582031,0.03999999910593033 79.24199676513672,0.05700000002980232 C79.24199676513672,0.05700000002980232 78.85600280761719,0.1080000028014183 78.85600280761719,0.1080000028014183 C78.33300018310547,0.1770000010728836 77.81700134277344,0.2529999911785126 77.30799865722656,0.335999995470047 C76.79900360107422,0.4189999997615814 76.33899688720703,0.515999972820282 75.9280014038086,0.628000020980835 C75.49099731445312,0.7559999823570251 75.11499786376953,0.9309999942779541 74.80000305175781,1.1519999504089355 C74.48500061035156,1.3730000257492065 74.24099731445312,1.6510000228881836 74.06800079345703,1.9839999675750732 C73.8949966430664,2.316999912261963 73.80799865722656,2.7109999656677246 73.80799865722656,3.1640000343322754 C73.80799865722656,3.628000020980835 73.91899871826172,4.054999828338623 74.13999938964844,4.443999767303467 C74.36100006103516,4.833000183105469 74.68900299072266,5.146999835968018 75.1240005493164,5.383999824523926 C75.55899810791016,5.620999813079834 76.0989990234375,5.739999771118164 76.74400329589844,5.739999771118164z M76.95999908447266,4.547999858856201 C76.54900360107422,4.547999858856201 76.21700286865234,4.480999946594238 75.96399688720703,4.3480000495910645 C75.71099853515625,4.215000152587891 75.52400207519531,4.040999889373779 75.40399932861328,3.828000068664551 C75.28399658203125,3.615000009536743 75.2239990234375,3.3910000324249268 75.2239990234375,3.1559998989105225 C75.2239990234375,2.884000062942505 75.28700256347656,2.6559998989105225 75.41200256347656,2.4719998836517334 C75.53700256347656,2.2880001068115234 75.7030029296875,2.13700008392334 75.90799713134766,2.0199999809265137 C76.11299896240234,1.902999997138977 76.33300018310547,1.8070000410079956 76.56800079345703,1.7319999933242798 C76.88800048828125,1.6410000324249268 77.24800109863281,1.562999963760376 77.64800262451172,1.496000051498413 C78.0479965209961,1.4290000200271606 78.47200012207031,1.3669999837875366 78.91999816894531,1.3079999685287476 C79.36799621582031,1.2489999532699585 79.8239974975586,1.187999963760376 80.28800201416016,1.1239999532699585 C80.28800201416016,1.1239999532699585 79.78900146484375,1.1920000314712524 79.78900146484375,1.1920000314712524 C79.78900146484375,1.1920000314712524 79.78800201416016,1.3070000410079956 79.78800201416016,1.3070000410079956 C79.78700256347656,1.3600000143051147 79.78500366210938,1.4160000085830688 79.78399658203125,1.4759999513626099 C79.78399658203125,1.4759999513626099 79.77999877929688,1.6640000343322754 79.77999877929688,1.6640000343322754 C79.77200317382812,1.9919999837875366 79.72799682617188,2.2890000343322754 79.64800262451172,2.555999994277954 C79.5790023803711,2.9130001068115234 79.42900085449219,3.243000030517578 79.19999694824219,3.5439999103546143 C78.97100067138672,3.8450000286102295 78.66799926757812,4.0879998207092285 78.29199981689453,4.271999835968018 C77.91600036621094,4.455999851226807 77.47200012207031,4.547999858856201 76.95999908447266,4.547999858856201z"></path></g></g></g></g></svg>