<svg xmlns="http://www.w3.org/2000/svg" viewBox="0 0 900 600" width="900" height="600" preserveAspectRatio="xMidYMid meet" style="width: 100%; height: 100%; transform: translate3d(0px, 0px, 0px);"><defs><clipPath id="__lottie_element_29"><rect width="900" height="600" x="0" y="0"></rect></clipPath><image xlink:href="documents/images/img_0.png"></image><image xlink:href="documents/images/img_1.png"></image><image xlink:href="documents/images/img_2.png"></image><image xlink:href="documents/images/img_3.png"></image><image xlink:href="documents/images/img_4.png"></image><image xlink:href="documents/images/img_5.png"></image><image xlink:href="documents/images/img_6.png"></image><image xlink:href="documents/images/img_7.png"></image><image xlink:href="documents/images/img_8.png"></image><image xlink:href="documents/images/img_9.png"></image><image xlink:href="documents/images/img_10.png"></image><image xlink:href="documents/images/img_11.png"></image><image xlink:href="documents/images/img_12.png"></image><image xlink:href="documents/images/img_13.png"></image><radialGradient id="__lottie_element_36" spreadMethod="pad" gradientUnits="userSpaceOnUse" cx="0" cy="0" r="284.27099746544667" fx="0" fy="0"><stop offset="0%" stop-color="rgb(150,97,245)"></stop><stop offset="50%" stop-color="rgb(148,94,248)"></stop><stop offset="100%" stop-color="rgb(147,91,250)"></stop></radialGradient><mask id="__lottie_element_38"><path fill="url(#__lottie_element_37)" d=" M0,-330.2149963378906 C227.65875244140625,-330.2149963378906 412.5,-182.2456512451172 412.5,0 C412.5,182.2456512451172 227.65875244140625,330.2149963378906 0,330.2149963378906 C-227.65875244140625,330.2149963378906 -412.5,182.2456512451172 -412.5,0 C-412.5,-182.2456512451172 -227.65875244140625,-330.2149963378906 0,-330.2149963378906z"></path></mask><radialGradient id="__lottie_element_37" spreadMethod="pad" gradientUnits="userSpaceOnUse" cx="0" cy="0" r="284.27099746544667" fx="0" fy="0"><stop stop-color="rgb(255,255,255)" offset="47%" stop-opacity="0.33000001311302185"></stop><stop stop-color="rgb(255,255,255)" offset="74%" stop-opacity="0.16500000655651093"></stop><stop stop-color="rgb(255,255,255)" offset="100%" stop-opacity="0"></stop></radialGradient><filter id="__lottie_element_50" x="0%" y="0%" width="100%" height="100%"><feGaussianBlur in="SourceAlpha" result="drop_shadow_1" stdDeviation="12.5"></feGaussianBlur><feOffset dx="1.2246467991473533e-15" dy="20" in="drop_shadow_1" result="drop_shadow_2"></feOffset><feFlood flood-color="#000000" flood-opacity="0.5" result="drop_shadow_3"></feFlood><feComposite in="drop_shadow_3" in2="drop_shadow_2" operator="in" result="drop_shadow_4"></feComposite><feMerge><feMergeNode></feMergeNode><feMergeNode in="SourceGraphic"></feMergeNode></feMerge></filter><clipPath id="__lottie_element_55"><path d="M0,0 L900,0 L900,600 L0,600z"></path></clipPath><filter id="__lottie_element_57" x="0%" y="0%" width="100%" height="100%"><feGaussianBlur in="SourceAlpha" result="drop_shadow_1" stdDeviation="12.5"></feGaussianBlur><feOffset dx="1.5308084989341915e-15" dy="25" in="drop_shadow_1" result="drop_shadow_2"></feOffset><feFlood flood-color="#000000" flood-opacity="0.5" result="drop_shadow_3"></feFlood><feComposite in="drop_shadow_3" in2="drop_shadow_2" operator="in" result="drop_shadow_4"></feComposite><feMerge><feMergeNode></feMergeNode><feMergeNode in="SourceGraphic"></feMergeNode></feMerge></filter><clipPath id="__lottie_element_86"><path d="M0,0 L900,0 L900,800 L0,800z"></path></clipPath><mask id="__lottie_element_89" mask-type="alpha"><g transform="matrix(1,0,0,1,476,288.5)" opacity="1" style="display: block;"><g opacity="1" transform="matrix(1,0,0,1,-32.5,6.5)"><path fill="rgb(255,0,0)" fill-opacity="1" d=" M421.5,-250 C421.5,-250 421.5,250 421.5,250 C421.5,250 -421.5,250 -421.5,250 C-421.5,250 -421.5,-250 -421.5,-250 C-421.5,-250 421.5,-250 421.5,-250z"></path></g></g></mask></defs><g clip-path="url(#__lottie_element_29)"><g transform="matrix(0.75,0,0,0.75,0,0)" opacity="1" style="display: block;"><rect width="1200" height="800" fill="#0b0326"></rect></g><g transform="matrix(0.75,0,0,0.75,450,300)" opacity="1" style="display: block;"><g opacity="1" transform="matrix(1,0,0,1,5.5,22)"><path fill="url(#__lottie_element_36)" mask="url(#__lottie_element_38)" fill-opacity="1" d="M0 0 M0,-330.2149963378906 C227.65875244140625,-330.2149963378906 412.5,-182.2456512451172 412.5,0 C412.5,182.2456512451172 227.65875244140625,330.2149963378906 0,330.2149963378906 C-227.65875244140625,330.2149963378906 -412.5,182.2456512451172 -412.5,0 C-412.5,-182.2456512451172 -227.65875244140625,-330.2149963378906 0,-330.2149963378906z"></path></g></g><g class="png" transform="matrix(1,0,0,1,0,0)" opacity="1" style="display: block;"><image width="900px" height="600px" preserveAspectRatio="xMidYMid slice" xlink:href="documents/images/img_13.png"></image></g><g transform="matrix(0.75,0,0,0.75,460.9079895019531,273.67401123046875)" opacity="1" style="display: block;"><g opacity="1" transform="matrix(1,0,0,1,0,0)"><g opacity="1" transform="matrix(1,0,0,1,0,0)"><path stroke-linecap="butt" stroke-linejoin="miter" fill-opacity="0" stroke-miterlimit="4" stroke="rgb(60,32,127)" stroke-opacity="1" stroke-width="3" d=" M56.45600128173828,11.10099983215332 C56.45600128173828,11.10099983215332 312.95599365234375,-107.89900207519531 312.95599365234375,-107.89900207519531"></path></g><g opacity="1" transform="matrix(1,0,0,1,0,0)"><path stroke-linecap="butt" stroke-linejoin="miter" fill-opacity="0" stroke-miterlimit="4" stroke="rgb(60,32,127)" stroke-opacity="1" stroke-width="3" d=" M-64.54399871826172,82.60099792480469 C-64.54399871826172,82.60099792480469 -324.54400634765625,230.1009979248047 -324.54400634765625,230.1009979248047"></path></g></g><g opacity="1" transform="matrix(1,0,0,1,26.5,-3.5)"><g opacity="1" transform="matrix(1,0,0,1,0,0)"><path stroke-linecap="butt" stroke-linejoin="miter" fill-opacity="0" stroke-miterlimit="4" stroke="rgb(60,32,127)" stroke-opacity="1" stroke-width="3" d=" M-345.04400634765625,-87.39900207519531 C-345.04400634765625,-87.39900207519531 -251.16600036621094,-34.308998107910156 -251.16600036621094,-34.308998107910156 C-251.16600036621094,-34.308998107910156 -311.83099365234375,1.9359999895095825 -311.83099365234375,1.9359999895095825 C-311.83099365234375,1.9359999895095825 -237.29400634765625,45.60100173950195 -237.29400634765625,45.60100173950195"></path></g><g opacity="1" transform="matrix(1,0,0,1,0,0)"><path stroke-linecap="butt" stroke-linejoin="miter" fill-opacity="0" stroke-miterlimit="4" stroke="rgb(60,32,127)" stroke-opacity="1" stroke-width="3" d=" M-320.54400634765625,-107.89900207519531 C-320.54400634765625,-107.89900207519531 -166.54400634765625,-20.39900016784668 -166.54400634765625,-20.39900016784668"></path></g><g opacity="1" transform="matrix(1,0,0,1,0,0)"><path stroke-linecap="butt" stroke-linejoin="miter" fill-opacity="0" stroke-miterlimit="4" stroke="rgb(60,32,127)" stroke-opacity="1" stroke-width="3" d=" M-308.54400634765625,-131.8990020751953 C-308.54400634765625,-131.8990020751953 -195.68699645996094,-68.7760009765625 -195.68699645996094,-68.7760009765625 C-195.68699645996094,-68.7760009765625 -141.81399536132812,-99.5530014038086 -141.81399536132812,-99.5530014038086 C-141.81399536132812,-99.5530014038086 -86.54399871826172,-67.14900207519531 -86.54399871826172,-67.14900207519531"></path></g></g><g opacity="1" transform="matrix(1,0,0,1,6,-2)"><g opacity="1" transform="matrix(1,0,0,1,-29,55)"><path stroke-linecap="butt" stroke-linejoin="miter" fill-opacity="0" stroke-miterlimit="4" stroke="rgb(60,32,127)" stroke-opacity="1" stroke-width="3" d=" M268.95599365234375,206.6009979248047 C268.95599365234375,206.6009979248047 171.33799743652344,147.85000610351562 171.33799743652344,147.85000610351562 C171.33799743652344,147.85000610351562 111.02100372314453,183.6510009765625 111.02100372314453,183.6510009765625 C111.02100372314453,183.6510009765625 -7.544000148773193,112.60099792480469 -7.544000148773193,112.60099792480469"></path></g><g opacity="1" transform="matrix(1,0,0,1,-10.5,26.5)"><path stroke-linecap="butt" stroke-linejoin="miter" fill-opacity="0" stroke-miterlimit="4" stroke="rgb(60,32,127)" stroke-opacity="1" stroke-width="3" d=" M268.95599365234375,206.6009979248047 C268.95599365234375,206.6009979248047 40.95600128173828,65.60099792480469 40.95600128173828,65.60099792480469"></path></g><g opacity="1" transform="matrix(1,0,0,1,0,0)"><path stroke-linecap="butt" stroke-linejoin="miter" fill-opacity="0" stroke-miterlimit="4" stroke="rgb(60,32,127)" stroke-opacity="1" stroke-width="3" d=" M268.95599365234375,206.6009979248047 C268.95599365234375,206.6009979248047 203.80999755859375,169.86300659179688 203.80999755859375,169.86300659179688 C203.80999755859375,169.86300659179688 270.8349914550781,133.06700134277344 270.8349914550781,133.06700134277344 C270.8349914550781,133.06700134277344 188.45599365234375,78.60099792480469 188.45599365234375,78.60099792480469"></path></g></g></g><g transform="matrix(0.75,0,0,0.75,460.9079895019531,273.67401123046875)" opacity="1" style="display: block;"><path stroke-linecap="round" stroke-linejoin="miter" fill-opacity="0" stroke-miterlimit="4" stroke="rgb(248,69,255)" stroke-opacity="1" stroke-width="4" d=" M176.19000244140625,-44.448001861572266 C177.8979949951172,-45.24100112915039 179.60899353027344,-46.034000396728516 181.32000732421875,-46.827999114990234 M-185.91200256347656,151.45399475097656 C-187.6439971923828,152.43600463867188 -189.3769989013672,153.4199981689453 -191.11199951171875,154.4040069580078 M-253.33,-20.68 C-254.85,-19.77 -256.37,-18.87 -257.88,-17.96 M-211.93,-64.74 C-210.9,-64.16 -209.88,-63.58 -208.85,-62.99 M-163.21,-75.69 C-161.89,-76.44 -160.4,-77.3 -158.78,-78.22 M98.53,230.41 C92.28,234.12 88.02,236.65 88.02,236.65 C88.02,236.65 86.83,235.94 84.69,234.65 M142.89,155.92 C139.07,153.56 135.26,151.21 131.49,148.87 M261.1,139.7 C265.48,137.3 269.29,135.21 272.06,133.69"></path><g opacity="1" transform="matrix(1,0,0,1,0,0)"><g opacity="1" transform="matrix(1,0,0,1,0,0)"></g><g opacity="1" transform="matrix(1,0,0,1,0,0)"></g></g><g opacity="1" transform="matrix(1,0,0,1,26.5,-3.5)"><g opacity="1" transform="matrix(1,0,0,1,0,0)"></g><g opacity="1" transform="matrix(1,0,0,1,0,0)"></g><g opacity="1" transform="matrix(1,0,0,1,0,0)"></g></g><g opacity="1" transform="matrix(1,0,0,1,6,-2)"><g opacity="1" transform="matrix(1,0,0,1,-29,55)"></g><g opacity="1" transform="matrix(1,0,0,1,-10.5,26.5)"></g><g opacity="1" transform="matrix(1,0,0,1,0,0)"></g></g></g><g class="png" filter="url(#__lottie_element_50)" transform="matrix(1,0,0,1,-30,-20)" opacity="1" style="display: block;"><image width="960px" height="640px" preserveAspectRatio="xMidYMid slice" xlink:href="documents/images/img_12.png"></image></g><g class="png" transform="matrix(0.5864716172218323,0,0,0.5864716172218323,168.21755981445312,414.9846496582031)" opacity="0.40218021978021845" style="display: block;"><image width="180px" height="116px" preserveAspectRatio="xMidYMid slice" xlink:href="documents/images/img_11.png"></image></g><g clip-path="url(#__lottie_element_55)" filter="url(#__lottie_element_57)" transform="matrix(0.4330126941204071,0.25,-0.25,0.4330126941204071,338.144287109375,76.09619140625)" opacity="1" style="display: block;"><g class="png" transform="matrix(1,0,0,1,-0.5,0.25)" opacity="1" style="display: block;"><image width="900px" height="600px" preserveAspectRatio="xMidYMid slice" xlink:href="documents/images/img_10.png"></image></g><g mask="url(#__lottie_element_89)" style="mix-blend-mode: screen; display: block;"><g clip-path="url(#__lottie_element_86)" transform="matrix(1,0,0,1,-28.580291748046875,-40.845062255859375)" opacity="1"><g class="png" transform="matrix(0.8999999761581421,0,0,0.8999999761581421,246.14999389648438,244.3359832763672)" opacity="1" style="display: block;"><image width="592px" height="49px" preserveAspectRatio="xMidYMid slice" xlink:href="documents/images/img_9.png"></image></g><g class="png" transform="matrix(0.8999999761581421,0,0,0.8999999761581421,162.25,390.8210144042969)" opacity="1" style="display: block;"><image width="592px" height="49px" preserveAspectRatio="xMidYMid slice" xlink:href="documents/images/img_9.png"></image></g><g class="png" transform="matrix(0.8999999761581421,0,0,0.8999999761581421,79.35000610351562,537.3070068359375)" opacity="1" style="display: block;"><image width="592px" height="49px" preserveAspectRatio="xMidYMid slice" xlink:href="documents/images/img_9.png"></image></g><g class="png" transform="matrix(0.8999999761581421,0,0,0.8999999761581421,329.6000061035156,97.85000610351562)" opacity="1" style="display: none;"><image width="592px" height="49px" preserveAspectRatio="xMidYMid slice" xlink:href="documents/images/img_9.png"></image></g><g class="png" transform="matrix(0.8999999761581421,0,0,0.8999999761581421,272.95001220703125,163.44300842285156)" opacity="1" style="display: block;"><image width="604px" height="66px" preserveAspectRatio="xMidYMid slice" xlink:href="documents/images/img_8.png"></image></g><g class="png" transform="matrix(0.8999999761581421,0,0,0.8999999761581421,189.17501831054688,309.9289855957031)" opacity="1" style="display: block;"><image width="604px" height="66px" preserveAspectRatio="xMidYMid slice" xlink:href="documents/images/img_8.png"></image></g><g class="png" transform="matrix(0.8999999761581421,0,0,0.8999999761581421,105.9000244140625,456.41400146484375)" opacity="1" style="display: block;"><image width="604px" height="66px" preserveAspectRatio="xMidYMid slice" xlink:href="documents/images/img_8.png"></image></g><g class="png" transform="matrix(0.8999999761581421,0,0,0.8999999761581421,22.1500244140625,602.8999633789062)" opacity="1" style="display: block;"><image width="604px" height="66px" preserveAspectRatio="xMidYMid slice" xlink:href="documents/images/img_8.png"></image></g><g class="png" transform="matrix(0.8999999761581421,0,0,0.8999999761581421,355.70001220703125,16.957002639770508)" opacity="1" style="display: none;"><image width="604px" height="66px" preserveAspectRatio="xMidYMid slice" xlink:href="documents/images/img_8.png"></image></g></g></g><g class="png" style="mix-blend-mode: screen; display: block;" transform="matrix(0.8999999761581421,0,0,0.8999999761581421,297.1000061035156,64.39999389648438)" opacity="0.06639999999997978"><image width="592px" height="49px" preserveAspectRatio="xMidYMid slice" xlink:href="documents/images/img_9.png"></image></g><g class="png" transform="matrix(0.8999999761581421,0,0,0.8999999761581421,276.95001220703125,63.600006103515625)" opacity="0.9997999999999924" style="mix-blend-mode: screen; display: none;"><image width="604px" height="66px" preserveAspectRatio="xMidYMid slice" xlink:href="documents/images/img_8.png"></image></g></g><g class="png" transform="matrix(1.5,0,0,1.5,181.5,76.94740295410156)" opacity="1" style="display: block;"><image width="85px" height="85px" preserveAspectRatio="xMidYMid slice" xlink:href="documents/images/img_7.png"></image></g><g class="png" transform="matrix(1.2371742725372314,0,0,1.2371742725372314,303.7762451171875,221.407470703125)" opacity="0.44034738552558866" style="display: block;"><image width="238px" height="161px" preserveAspectRatio="xMidYMid slice" xlink:href="documents/images/img_6.png"></image></g><g class="png" transform="matrix(0.675000011920929,0,0,0.675000011920929,350.7749938964844,215.98040771484375)" opacity="1" style="display: block;"><image width="294px" height="194px" preserveAspectRatio="xMidYMid slice" xlink:href="documents/images/img_5.png"></image></g><g class="png" transform="matrix(0.5245542526245117,0.02162884548306465,-0.02162884548306465,0.5245542526245117,90.79231262207031,354.68353271484375)" opacity="1" style="display: block;"><image width="359px" height="319px" preserveAspectRatio="xMidYMid slice" xlink:href="documents/images/img_4.png"></image></g><g class="png" transform="matrix(0.6000000238418579,0,0,0.6000000238418579,718.6500244140625,315.15045166015625)" opacity="1" style="display: block;"><image width="87px" height="97px" preserveAspectRatio="xMidYMid slice" xlink:href="documents/images/img_3.png"></image></g><g class="png" transform="matrix(0.6000000238418579,0,0,0.6000000238418579,665.8499755859375,337.6011962890625)" opacity="1" style="display: block;"><image width="78px" height="102px" preserveAspectRatio="xMidYMid slice" xlink:href="documents/images/img_2.png"></image></g><g class="png" transform="matrix(0.75,0,0,0.75,603.375,350.4535217285156)" opacity="1" style="display: block;"><image width="75px" height="112px" preserveAspectRatio="xMidYMid slice" xlink:href="documents/images/img_1.png"></image></g><g class="png" transform="matrix(0.637499988079071,0,0,0.637499988079071,551.4375,409.5562744140625)" opacity="1" style="display: block;"><image width="70px" height="107px" preserveAspectRatio="xMidYMid slice" xlink:href="documents/images/img_0.png"></image></g></g></svg>