<svg xmlns="http://www.w3.org/2000/svg" viewBox="0 0 334 334" width="334" height="334" preserveAspectRatio="xMidYMid meet" style="width: 100%; height: 100%; transform: translate3d(0px, 0px, 0px);"><defs><clipPath id="__lottie_element_6"><rect width="334" height="334" x="0" y="0"></rect></clipPath><clipPath id="__lottie_element_8"><path d="M0,0 L1920,0 L1920,850 L0,850z"></path></clipPath></defs><g clip-path="url(#__lottie_element_6)"><g clip-path="url(#__lottie_element_8)" transform="matrix(1,0,0,1,-792,-258)" opacity="1" style="display: block;"><g transform="matrix(1,0,0,1,-7231,-7765.60986328125)" opacity="1" style="display: block;"></g><g transform="matrix(1,0,0,1,-7231,-7765.60986328125)" opacity="1" style="display: block;"></g><g transform="matrix(1,0,0,1,958.8419799804688,425.4800109863281)" opacity="1" style="display: block;"><g opacity="1" transform="matrix(1,0,0,1,0,0)"><path fill="rgb(123,97,255)" fill-opacity="1" d=" M0,-165.48699951171875 C91.3949966430664,-165.48699951171875 165.48699951171875,-91.39600372314453 165.48699951171875,0 C165.48699951171875,91.3949966430664 91.3949966430664,165.48699951171875 0,165.48699951171875 C-91.39600372314453,165.48699951171875 -165.48699951171875,91.3949966430664 -165.48699951171875,0 C-165.48699951171875,-91.39600372314453 -91.39600372314453,-165.48699951171875 0,-165.48699951171875z"></path></g></g><g transform="matrix(1,0,0,1,957.010986328125,425.2879943847656)" opacity="1" style="display: block;"><g opacity="1" transform="matrix(1,0,0,1,0,0)"><path fill="rgb(255,255,255)" fill-opacity="1" d=" M0,-65.84600067138672 C36.36600112915039,-65.84600067138672 65.84600067138672,-36.36600112915039 65.84600067138672,0 C65.84600067138672,36.36600112915039 36.36600112915039,65.84600067138672 0,65.84600067138672 C-36.36600112915039,65.84600067138672 -65.84600067138672,36.36600112915039 -65.84600067138672,0 C-65.84600067138672,-36.36600112915039 -36.36600112915039,-65.84600067138672 0,-65.84600067138672z"></path></g></g><g transform="matrix(1,0,0,1,1022.6640014648438,424.8909912109375)" opacity="1" style="display: block;"><g opacity="1" transform="matrix(1,0,0,1,0,0)"><path fill="rgb(255,255,255)" fill-opacity="1" d=" M-17.179000854492188,-62.130001068115234 C-17.179000854492188,-62.130001068115234 17.179000854492188,-62.130001068115234 17.179000854492188,-62.130001068115234 C17.179000854492188,-62.130001068115234 17.179000854492188,62.130001068115234 17.179000854492188,62.130001068115234 C17.179000854492188,62.130001068115234 -17.179000854492188,62.130001068115234 -17.179000854492188,62.130001068115234 C-17.179000854492188,62.130001068115234 -17.179000854492188,-62.130001068115234 -17.179000854492188,-62.130001068115234z"></path></g></g><g transform="matrix(1,0,0,1,965.3419799804688,425.9800109863281)" opacity="1" style="display: block;"><g opacity="1" transform="matrix(1,0,0,1,0,0)"><path fill="rgb(123,97,255)" fill-opacity="1" d=" M0,-41.082000732421875 C22.68899917602539,-41.082000732421875 41.082000732421875,-22.68899917602539 41.082000732421875,0 C41.082000732421875,22.68899917602539 22.68899917602539,41.082000732421875 0,41.082000732421875 C-22.68899917602539,41.082000732421875 -41.082000732421875,22.68899917602539 -41.082000732421875,0 C-41.082000732421875,-22.68899917602539 -22.68899917602539,-41.082000732421875 0,-41.082000732421875z"></path></g></g></g></g></svg>